<svg width="16" height="18" viewBox="0 0 16 18" fill="none" xmlns="http://www.w3.org/2000/svg">
<path d="M14 10.65H16V17.25H8V10.65H10V8.45H14V10.65ZM11 10.65H13V9.55H11V10.65ZM15 13.95H14V15.05H13V13.95H11V15.05H10V13.95H9V16.15H15V13.95ZM9 11.75V12.85H15V11.75H9ZM7 7.35C7 7.88281 6.89323 8.38125 6.67969 8.84531C6.46615 9.30937 6.16146 9.69896 5.76562 10.0141C6 10.1458 6.22135 10.2977 6.42969 10.4695C6.63802 10.6414 6.82812 10.8333 7 11.0453V13.95C7 13.4974 6.92188 13.0706 6.76562 12.6695C6.60938 12.2685 6.39583 11.919 6.125 11.6211C5.85417 11.3232 5.53385 11.0854 5.16406 10.9078C4.79427 10.7302 4.40625 10.6443 4 10.65C3.58333 10.65 3.19531 10.7359 2.83594 10.9078C2.47656 11.0797 2.15885 11.3146 1.88281 11.6125C1.60677 11.9104 1.39062 12.2628 1.23438 12.6695C1.07812 13.0763 1 13.5031 1 13.95H0C0 13.5318 0.0520833 13.1279 0.15625 12.7383C0.260417 12.3487 0.408854 11.9792 0.601562 11.6297C0.794271 11.2802 1.03125 10.9708 1.3125 10.7016C1.59375 10.4323 1.90104 10.2003 2.23438 10.0055C1.84375 9.69609 1.54167 9.30937 1.32812 8.84531C1.11458 8.38125 1.00521 7.88281 1 7.35C1 6.8974 1.07812 6.47057 1.23438 6.06953C1.39062 5.66849 1.60417 5.31901 1.875 5.02109C2.14583 4.72318 2.46354 4.48542 2.82812 4.30781C3.19271 4.13021 3.58333 4.04427 4 4.05C4.375 4.05 4.73177 4.12161 5.07031 4.26484C5.40885 4.40807 5.71875 4.62005 6 4.90078C6.16667 4.73464 6.35156 4.58854 6.55469 4.4625C6.3776 4.26198 6.24219 4.02995 6.14844 3.76641C6.05469 3.50286 6.00521 3.23073 6 2.95C6 2.64635 6.05208 2.36276 6.15625 2.09922C6.26042 1.83568 6.40365 1.60078 6.58594 1.39453C6.76823 1.18828 6.97917 1.03073 7.21875 0.921875C7.45833 0.813021 7.71875 0.755729 8 0.75C8.27604 0.75 8.53385 0.807292 8.77344 0.921875C9.01302 1.03646 9.22656 1.19401 9.41406 1.39453C9.60156 1.59505 9.74479 1.82708 9.84375 2.09063C9.94271 2.35417 9.99479 2.64062 10 2.95C10 3.23073 9.95312 3.50286 9.85938 3.76641C9.76562 4.02995 9.6276 4.26198 9.44531 4.4625C9.8776 4.72604 10.2292 5.08125 10.5 5.52813C10.7708 5.08125 11.1224 4.72604 11.5547 4.4625C11.3776 4.26198 11.2422 4.02995 11.1484 3.76641C11.0547 3.50286 11.0052 3.23073 11 2.95C11 2.64635 11.0521 2.36276 11.1562 2.09922C11.2604 1.83568 11.4036 1.60078 11.5859 1.39453C11.7682 1.18828 11.9792 1.03073 12.2188 0.921875C12.4583 0.813021 12.7188 0.755729 13 0.75C13.276 0.75 13.5339 0.807292 13.7734 0.921875C14.013 1.03646 14.2266 1.19401 14.4141 1.39453C14.6016 1.59505 14.7448 1.82708 14.8438 2.09063C14.9427 2.35417 14.9948 2.64062 15 2.95C15 3.23073 14.9531 3.50286 14.8594 3.76641C14.7656 4.02995 14.6276 4.26198 14.4453 4.4625C14.6849 4.60573 14.901 4.78047 15.0938 4.98672C15.2865 5.19297 15.4479 5.41927 15.5781 5.66563C15.7083 5.91198 15.8125 6.18125 15.8906 6.47344C15.9688 6.76562 16.0052 7.05781 16 7.35H15C15 7.04635 14.9479 6.76276 14.8438 6.49922C14.7396 6.23568 14.5964 6.00078 14.4141 5.79453C14.2318 5.58828 14.0208 5.43073 13.7812 5.32188C13.5417 5.21302 13.2812 5.15573 13 5.15C12.724 5.15 12.4661 5.20729 12.2266 5.32188C11.987 5.43646 11.7734 5.59401 11.5859 5.79453C11.3984 5.99505 11.2552 6.22708 11.1562 6.49062C11.0573 6.75417 11.0052 7.04063 11 7.35H10C10 7.04635 9.94792 6.76276 9.84375 6.49922C9.73958 6.23568 9.59635 6.00078 9.41406 5.79453C9.23177 5.58828 9.02083 5.43073 8.78125 5.32188C8.54167 5.21302 8.28125 5.15573 8 5.15C7.74479 5.15 7.4974 5.20156 7.25781 5.30469C7.01823 5.40781 6.80729 5.55964 6.625 5.76016C6.75 6.00078 6.84375 6.25573 6.90625 6.525C6.96875 6.79427 7 7.06927 7 7.35ZM13 1.85C12.8594 1.85 12.7292 1.87865 12.6094 1.93594C12.4896 1.99323 12.3854 2.07057 12.2969 2.16797C12.2083 2.26536 12.1354 2.38281 12.0781 2.52031C12.0208 2.65781 11.9948 2.80104 12 2.95C12 3.10469 12.026 3.24792 12.0781 3.37969C12.1302 3.51146 12.2005 3.62604 12.2891 3.72344C12.3776 3.82083 12.4844 3.90104 12.6094 3.96406C12.7344 4.02708 12.8646 4.05573 13 4.05C13.1406 4.05 13.2708 4.02135 13.3906 3.96406C13.5104 3.90677 13.6146 3.82943 13.7031 3.73203C13.7917 3.63464 13.8646 3.51719 13.9219 3.37969C13.9792 3.24219 14.0052 3.09896 14 2.95C14 2.79531 13.974 2.65208 13.9219 2.52031C13.8698 2.38854 13.7995 2.27396 13.7109 2.17656C13.6224 2.07917 13.5156 1.99896 13.3906 1.93594C13.2656 1.87292 13.1354 1.84427 13 1.85ZM8 1.85C7.85938 1.85 7.72917 1.87865 7.60938 1.93594C7.48958 1.99323 7.38542 2.07057 7.29688 2.16797C7.20833 2.26536 7.13542 2.38281 7.07812 2.52031C7.02083 2.65781 6.99479 2.80104 7 2.95C7 3.10469 7.02604 3.24792 7.07812 3.37969C7.13021 3.51146 7.20052 3.62604 7.28906 3.72344C7.3776 3.82083 7.48438 3.90104 7.60938 3.96406C7.73438 4.02708 7.86458 4.05573 8 4.05C8.14062 4.05 8.27083 4.02135 8.39062 3.96406C8.51042 3.90677 8.61458 3.82943 8.70312 3.73203C8.79167 3.63464 8.86458 3.51719 8.92188 3.37969C8.97917 3.24219 9.00521 3.09896 9 2.95C9 2.79531 8.97396 2.65208 8.92188 2.52031C8.86979 2.38854 8.79948 2.27396 8.71094 2.17656C8.6224 2.07917 8.51562 1.99896 8.39062 1.93594C8.26562 1.87292 8.13542 1.84427 8 1.85ZM4 9.55C4.27604 9.55 4.53385 9.49271 4.77344 9.37813C5.01302 9.26354 5.22656 9.10599 5.41406 8.90547C5.60156 8.70495 5.74479 8.47292 5.84375 8.20938C5.94271 7.94583 5.99479 7.65938 6 7.35C6 7.04635 5.94792 6.76276 5.84375 6.49922C5.73958 6.23568 5.59635 6.00078 5.41406 5.79453C5.23177 5.58828 5.02083 5.43073 4.78125 5.32188C4.54167 5.21302 4.28125 5.15573 4 5.15C3.72396 5.15 3.46615 5.20729 3.22656 5.32188C2.98698 5.43646 2.77344 5.59401 2.58594 5.79453C2.39844 5.99505 2.25521 6.22708 2.15625 6.49062C2.05729 6.75417 2.00521 7.04063 2 7.35C2 7.65365 2.05208 7.93724 2.15625 8.20078C2.26042 8.46432 2.40365 8.69922 2.58594 8.90547C2.76823 9.11172 2.97917 9.26927 3.21875 9.37813C3.45833 9.48698 3.71875 9.54427 4 9.55Z" fill="#006A05"/>
</svg>
