<svg width="9" height="8" viewBox="0 0 9 8" fill="none" xmlns="http://www.w3.org/2000/svg">
<path d="M5.60563 0.513713C5.71486 0.488607 5.8292 0.498136 5.93277 0.540975C6.03634 0.583815 6.124 0.65784 6.18358 0.752771L6.71998 1.60917C6.76323 1.67815 6.82152 1.73645 6.8905 1.7797L7.7469 2.3161C7.84204 2.37564 7.91624 2.46335 7.95918 2.56704C8.00213 2.67073 8.01168 2.78522 7.9865 2.89459L7.75985 3.87889C7.74157 3.95843 7.74157 4.04109 7.75985 4.12064L7.9865 5.10548C8.01143 5.21469 8.00176 5.32895 7.95883 5.43241C7.9159 5.53588 7.84183 5.62342 7.7469 5.68289L6.8905 6.21983C6.82152 6.26308 6.76323 6.32138 6.71998 6.39035L6.18358 7.24676C6.12407 7.34179 6.03644 7.41592 5.93287 7.45886C5.82929 7.5018 5.71491 7.51141 5.60563 7.48636L4.62079 7.25971C4.54141 7.24151 4.45895 7.24151 4.37957 7.25971L3.39473 7.48636C3.28545 7.51141 3.17107 7.5018 3.06749 7.45886C2.96392 7.41592 2.87629 7.34179 2.81678 7.24676L2.28039 6.39035C2.23698 6.32132 2.17849 6.26301 2.10932 6.21983L1.25346 5.68343C1.15843 5.62392 1.08429 5.5363 1.04135 5.43272C0.998415 5.32915 0.988805 5.21477 1.01386 5.10548L1.23997 4.12064C1.25825 4.04109 1.25825 3.95843 1.23997 3.87889L1.01332 2.89459C0.988195 2.78516 0.997826 2.67063 1.04087 2.56694C1.08391 2.46325 1.15823 2.37556 1.25346 2.3161L2.10932 1.7797C2.17849 1.73651 2.23698 1.67821 2.28039 1.60917L2.81678 0.752771C2.87633 0.657942 2.9639 0.583985 3.06736 0.541151C3.17082 0.498318 3.28504 0.488728 3.3942 0.513713L4.37957 0.73982C4.45895 0.758021 4.54141 0.758021 4.62079 0.73982L5.60563 0.513713Z" stroke="white" stroke-width="0.539636"/>
<path d="M3.15894 4.28881L4.2571 5.34056L5.84093 2.65857" stroke="white" stroke-width="0.539636" stroke-linecap="round" stroke-linejoin="round"/>
</svg>
