<svg width="18" height="18" viewBox="0 0 18 18" fill="none" xmlns="http://www.w3.org/2000/svg">
<path d="M4.78947 14.0526V12.3684M9 14.0526V11.5263M13.2105 14.0526V9.84211M1 9C1 5.22905 1 3.34274 2.17137 2.17137C3.34274 1 5.22821 1 9 1C12.7709 1 14.6573 1 15.8286 2.17137C17 3.34274 17 5.22821 17 9C17 12.7709 17 14.6573 15.8286 15.8286C14.6573 17 12.7718 17 9 17C5.22905 17 3.34274 17 2.17137 15.8286C1 14.6573 1 12.7718 1 9Z" stroke="#006A05" stroke-linecap="round" stroke-linejoin="round"/>
</svg>
