<svg width="14" height="14" viewBox="0 0 14 14" fill="none" xmlns="http://www.w3.org/2000/svg">
<rect width="14" height="14" rx="7" fill="#006A05"/>
<path d="M10.64 6.99999C10.64 7.66037 10.4773 8.2694 10.1518 8.8271C9.82638 9.38479 9.38481 9.82636 8.82712 10.1518C8.26943 10.4773 7.66039 10.64 7.00001 10.64C6.33963 10.64 5.73059 10.4773 5.1729 10.1518C4.61521 9.82636 4.17364 9.38479 3.84819 8.8271C3.52273 8.2694 3.36001 7.66037 3.36001 6.99999C3.36001 6.3396 3.52273 5.73057 3.84819 5.17288C4.17364 4.61519 4.61521 4.17361 5.1729 3.84816C5.73059 3.52271 6.33963 3.35999 7.00001 3.35999C7.66039 3.35999 8.26943 3.52271 8.82712 3.84816C9.38481 4.17361 9.82638 4.61519 10.1518 5.17288C10.4773 5.73057 10.64 6.3396 10.64 6.99999Z" fill="white"/>
</svg>
