<svg width="19" height="20" viewBox="0 0 19 20" fill="none" xmlns="http://www.w3.org/2000/svg">
<path d="M2.8125 15.917V19.5L4.23281 18.6352L8.69719 15.917H13.125C14.1591 15.917 15 15.0636 15 14.0141V6.40283C15 5.35342 14.1591 4.5 13.125 4.5H1.875C0.840937 4.5 0 5.35342 0 6.40283V14.0141C0 15.0636 0.840937 15.917 1.875 15.917H2.8125ZM1.875 6.40283H13.125V14.0141H8.17781L4.6875 16.1396V14.0141H1.875V6.40283Z" fill="#006A05"/>
<path d="M17.125 0.5H5.875C4.84094 0.5 4 1.62125 4 3H15.25C16.2841 3 17.125 4.12125 17.125 5.5V15.5C18.1591 15.5 19 14.3787 19 13V3C19 1.62125 18.1591 0.5 17.125 0.5Z" fill="#006A05"/>
</svg>
