<svg width="17" height="17" viewBox="0 0 17 17" fill="none" xmlns="http://www.w3.org/2000/svg">
<rect width="17" height="17" rx="8.5" fill="black"/>
<path d="M8 3C9.38125 3 10.5 4.09389 10.5 5.44444C10.5 6.795 9.38125 7.88889 8 7.88889C6.61875 7.88889 5.5 6.795 5.5 5.44444C5.5 4.09389 6.61875 3 8 3ZM10.5 9.44111C10.5 10.0889 10.325 11.5983 9.13125 13.285L8.625 10.3333L9.2125 9.18444C8.825 9.14167 8.41875 9.11111 8 9.11111C7.58125 9.11111 7.175 9.14167 6.7875 9.18444L7.375 10.3333L6.86875 13.285C5.675 11.5983 5.5 10.0889 5.5 9.44111C4.00625 9.86889 3 10.6389 3 11.5556V14H13V11.5556C13 10.6389 12 9.86889 10.5 9.44111Z" fill="white"/>
</svg>
